<svg width="20" height="21" viewBox="0 0 20 21" fill="none" xmlns="http://www.w3.org/2000/svg">
<g id="memo-circle-plus">
<path id="Icon" fill-rule="evenodd" clip-rule="evenodd" d="M5.83333 1.33325C3.99238 1.33325 2.5 2.82564 2.5 4.66658V16.3333C2.5 18.1742 3.99238 19.6666 5.83333 19.6666H9.16667C9.6269 19.6666 10 19.2935 10 18.8333C10 18.373 9.6269 17.9999 9.16667 17.9999H5.83333C4.91286 17.9999 4.16667 17.2537 4.16667 16.3333V4.66658C4.16667 3.74611 4.91286 2.99992 5.83333 2.99992H13.3333C14.2538 2.99992 15 3.74611 15 4.66659V10.9166C15 11.3768 15.3731 11.7499 15.8333 11.7499C16.2936 11.7499 16.6667 11.3768 16.6667 10.9166V4.66659C16.6667 2.82564 15.1743 1.33325 13.3333 1.33325H5.83333ZM5.83333 5.49992C5.3731 5.49992 5 5.87301 5 6.33325C5 6.79349 5.3731 7.16658 5.83333 7.16658H12.5C12.9602 7.16658 13.3333 6.79349 13.3333 6.33325C13.3333 5.87301 12.9602 5.49992 12.5 5.49992H5.83333ZM5.83333 8.83325C5.3731 8.83325 5 9.20635 5 9.66659C5 10.1268 5.3731 10.4999 5.83333 10.4999H12.5C12.9602 10.4999 13.3333 10.1268 13.3333 9.66659C13.3333 9.20635 12.9602 8.83325 12.5 8.83325H5.83333ZM5.83333 12.1666C5.3731 12.1666 5 12.5397 5 12.9999C5 13.4602 5.3731 13.8333 5.83333 13.8333H10C10.4602 13.8333 10.8333 13.4602 10.8333 12.9999C10.8333 12.5397 10.4602 12.1666 10 12.1666H5.83333ZM14.1667 12.9999C16.0076 12.9999 17.5 14.4923 17.5 16.3333C17.5 18.1742 16.0076 19.6666 14.1667 19.6666C12.3257 19.6666 10.8333 18.1742 10.8333 16.3333C10.8333 14.4923 12.3257 12.9999 14.1667 12.9999ZM14.1667 14.0416C14.5118 14.0416 14.7917 14.3214 14.7917 14.6666V15.7083H15.8333C16.1785 15.7083 16.4583 15.9881 16.4583 16.3333C16.4583 16.6784 16.1785 16.9583 15.8333 16.9583H14.7917V17.9999C14.7917 18.3451 14.5118 18.6249 14.1667 18.6249C13.8215 18.6249 13.5417 18.3451 13.5417 17.9999V16.9583H12.5C12.1548 16.9583 11.875 16.6784 11.875 16.3333C11.875 15.9881 12.1548 15.7083 12.5 15.7083H13.5417V14.6666C13.5417 14.3214 13.8215 14.0416 14.1667 14.0416Z" fill="#667085"/>
</g>
</svg>
