<svg width="14" height="14" viewBox="0 0 14 14" fill="none" xmlns="http://www.w3.org/2000/svg">
<path d="M13 6.33333H11.3333M9.66667 6.33333H11.3333M11.3333 6.33333V4.66667M11.3333 6.33333V8M4.33333 8.33333H7C8.84095 8.33333 10.3333 9.82572 10.3333 11.6667V12.3333C10.3333 12.7015 10.0349 13 9.66667 13H1.66667C1.29848 13 1 12.7015 1 12.3333V11.6667C1 9.82572 2.49238 8.33333 4.33333 8.33333ZM8.33333 3.66667C8.33333 5.13943 7.13943 6.33333 5.66667 6.33333C4.19391 6.33333 3 5.13943 3 3.66667C3 2.19391 4.19391 1 5.66667 1C7.13943 1 8.33333 2.19391 8.33333 3.66667Z" stroke="#667085" stroke-width="1.33333" stroke-linecap="round" stroke-linejoin="round"/>
</svg>
