<?xml version="1.0" encoding="UTF-8"?>
<svg version="1.1" xmlns="http://www.w3.org/2000/svg" width="50" height="50">
<path d="M0 0 C-0.24101397 5.56427915 -3.76018887 8.21853469 -7.5625 11.8125 C-8.17802734 12.40998047 -8.79355469 13.00746094 -9.42773438 13.62304688 C-10.94293249 15.0912621 -12.47030438 16.54689553 -14 18 C-12.12593705 22.9342417 -7.94946045 26.08219217 -4.16796875 29.578125 C-2.70592853 30.97998439 -1.34543341 32.4858731 0 34 C0 35.32 0 36.64 0 38 C-5.47528237 37.10713358 -8.53274648 33.01979807 -12.3125 29.25 C-13.06595703 28.53328125 -13.81941406 27.8165625 -14.59570312 27.078125 C-15.30275391 26.376875 -16.00980469 25.675625 -16.73828125 24.953125 C-17.38837158 24.31536133 -18.03846191 23.67759766 -18.70825195 23.02050781 C-20 21 -20 21 -19.92211914 18.50219727 C-18.86525602 15.63436828 -17.66629124 14.16400579 -15.5078125 12.01171875 C-14.80269531 11.30595703 -14.09757812 10.60019531 -13.37109375 9.87304688 C-12.62988281 9.15181641 -11.88867188 8.43058594 -11.125 7.6875 C-10.39152344 6.94693359 -9.65804688 6.20636719 -8.90234375 5.44335938 C-3.3937644 0 -3.3937644 0 0 0 Z " fill="#000000" transform="translate(35,6)"/>
</svg>
