<svg width="17" height="16" viewBox="0 0 17 16" fill="none" xmlns="http://www.w3.org/2000/svg">
<path d="M6.51741 3.7758C6.47344 3.61579 6.45 3.44765 6.45 3.27418C6.45 2.2021 7.34543 1.33301 8.45 1.33301C9.55457 1.33301 10.45 2.2021 10.45 3.27418C10.45 3.44765 10.4266 3.61579 10.3826 3.7758M6.51741 3.7758C7.07625 3.45814 7.73914 3.27418 8.45 3.27418C9.16085 3.27418 9.82374 3.45814 10.3826 3.7758M6.51741 3.7758C6.47162 3.80184 6.42652 3.82877 6.38215 3.85657C5.44869 4.44147 4.83822 5.41162 4.83822 6.50948V6.92316C4.83822 7.92768 4.57713 8.91842 4.07561 9.81689L3.19386 11.3966C2.95371 11.8268 3.30297 12.333 3.83995 12.333H6.45H10.45H13.06C13.597 12.333 13.9463 11.8268 13.7061 11.3966L12.8244 9.81689C12.3229 8.91841 12.0618 7.92768 12.0618 6.92316V6.50948C12.0618 5.41162 11.4513 4.44147 10.5178 3.85657C10.4735 3.82877 10.4284 3.80184 10.3826 3.7758M7.11666 14.1571C7.4705 14.4738 7.93776 14.6663 8.45 14.6663C8.96223 14.6663 9.42949 14.4738 9.78333 14.1571M13.5184 3.99967C13.9916 4.71688 14.3167 5.54044 14.45 6.4268M2.45 6.4268C2.58332 5.54044 2.90838 4.71688 3.38157 3.99967" stroke="#667085" stroke-width="1.33333" stroke-linecap="round"/>
</svg>
