<svg width="20" height="20" viewBox="0 0 20 20" fill="none" xmlns="http://www.w3.org/2000/svg">
<path d="M10.0001 16.6668C10.4167 16.6668 10.8334 16.5627 11.2501 16.3543H16.6667C17.5872 16.3543 18.3334 15.6081 18.3334 14.6877V5.00016C18.3334 4.07969 17.5872 3.3335 16.6667 3.3335H11.2501C10.8334 3.54183 10.4167 3.646 10.0001 3.646M10.0001 16.6668C9.58342 16.6668 9.16675 16.5627 8.75008 16.3543H3.33342C2.41294 16.3543 1.66675 15.6081 1.66675 14.6877V5.00016C1.66675 4.07969 2.41294 3.3335 3.33341 3.3335H8.75008C9.16675 3.54183 9.58342 3.646 10.0001 3.646M10.0001 16.6668V3.646M4.58341 6.25016H7.08341M4.58341 9.5835H7.08341" stroke="#98A2B3" stroke-width="1.66667" stroke-linecap="round" stroke-linejoin="round"/>
</svg>
