<svg width="17" height="16" viewBox="0 0 17 16" fill="none" xmlns="http://www.w3.org/2000/svg">
<path fill-rule="evenodd" clip-rule="evenodd" d="M1.78333 4.66602C1.78333 3.56145 2.67876 2.66602 3.78333 2.66602H4.64464H12.2553H13.1167C14.2212 2.66602 15.1167 3.56145 15.1167 4.66602V5.33268V7.33268V11.3327C15.1167 12.4373 14.2212 13.3327 13.1167 13.3327H12.2553H4.64464H3.78333C2.67876 13.3327 1.78333 12.4373 1.78333 11.3327V7.33268V5.33268V4.66602ZM3.78333 3.99935C3.41514 3.99935 3.11666 4.29783 3.11666 4.66602V5.33268H13.7833V4.66602C13.7833 4.29783 13.4848 3.99935 13.1167 3.99935H12.2553H4.64464H3.78333ZM13.7833 7.33268H3.11666V11.3327C3.11666 11.7009 3.41514 11.9993 3.78333 11.9993H4.64464H12.2553H13.1167C13.4848 11.9993 13.7833 11.7009 13.7833 11.3327V7.33268ZM9.78333 11.3324C10.5197 11.3324 11.1167 10.7354 11.1167 9.99902C11.1167 9.26264 10.5197 8.66569 9.78333 8.66569C9.04695 8.66569 8.44999 9.26264 8.44999 9.99902C8.44999 10.7354 9.04695 11.3324 9.78333 11.3324ZM11.7833 11.3324C11.6274 11.3324 11.4778 11.3056 11.3387 11.2564C11.6168 10.9129 11.7833 10.4754 11.7833 9.99902C11.7833 9.52264 11.6168 9.08515 11.3387 8.74162C11.4778 8.69245 11.6274 8.66569 11.7833 8.66569C12.5197 8.66569 13.1167 9.26264 13.1167 9.99902C13.1167 10.7354 12.5197 11.3324 11.7833 11.3324Z" fill="#667085"/>
</svg>
