<svg width="20" height="20" viewBox="0 0 20 20" fill="none" xmlns="http://www.w3.org/2000/svg">
<path d="M2.8504 6.05589C3.07247 5.68456 3.39207 5.37061 3.78589 5.15337L8.78589 2.39537C9.54095 1.97889 10.4591 1.97889 11.2141 2.39537L16.2141 5.15337C16.6079 5.3706 16.9275 5.68455 17.1496 6.05587M2.8504 6.05589C2.62493 6.4329 2.5 6.86906 2.5 7.32321V12.6761C2.5 13.5776 2.99223 14.4082 3.78589 14.846L8.78589 17.604C9.16345 17.8122 9.58177 17.9164 10.0001 17.9163M2.8504 6.05589L8.78589 9.32997C9.16345 9.53823 9.58177 9.64235 10.0001 9.64234M17.1496 6.05587C17.3751 6.43289 17.5 6.86906 17.5 7.32321V12.6761C17.5 13.5776 17.0078 14.4082 16.2141 14.846L11.2141 17.604C10.8366 17.8122 10.4183 17.9163 10.0001 17.9163M17.1496 6.05587L11.2141 9.32997C10.8366 9.5382 10.4183 9.64232 10.0001 9.64234M10.0001 9.64234V17.9163" stroke="#98A2B3" stroke-width="1.66667" stroke-linecap="round" stroke-linejoin="round"/>
</svg>
