<svg width="24" height="24" viewBox="0 0 24 24" fill="none" xmlns="http://www.w3.org/2000/svg">
<g id="Icon">
<g id="Icon_2">
<path d="M8 3H5C3.89543 3 3 3.89543 3 5V6C3 7.10457 3.89543 8 5 8H8C9.10457 8 10 7.10457 10 6V5C10 3.89543 9.10457 3 8 3Z" stroke="#007ECC" stroke-width="2"/>
<path d="M19 3H16C14.8954 3 14 3.89543 14 5V11C14 12.1046 14.8954 13 16 13H19C20.1046 13 21 12.1046 21 11V5C21 3.89543 20.1046 3 19 3Z" stroke="#007ECC" stroke-width="2"/>
<path d="M8 12H5C3.89543 12 3 12.8954 3 14V19C3 20.1046 3.89543 21 5 21H8C9.10457 21 10 20.1046 10 19V14C10 12.8954 9.10457 12 8 12Z" stroke="#007ECC" stroke-width="2"/>
<path d="M19 16H16C14.8954 16 14 16.8954 14 18V19C14 20.1046 14.8954 21 16 21H19C20.1046 21 21 20.1046 21 19V18C21 16.8954 20.1046 16 19 16Z" stroke="#007ECC" stroke-width="2"/>
</g>
</g>
</svg>
