<svg width="16" height="16" viewBox="0 0 16 16" fill="none" xmlns="http://www.w3.org/2000/svg">
<path d="M13.3333 3.33301H9.66663M2.66663 3.33301H6.33329M6.33329 3.33301V2.99967C6.33329 2.0792 7.07948 1.33301 7.99996 1.33301V1.33301C8.92043 1.33301 9.66663 2.0792 9.66663 2.99967V3.33301M6.33329 3.33301H9.66663M6.66663 7.99967V11.9997M9.33329 7.99967V11.9997M6.40122 14.6663H9.5987C10.594 14.6663 11.4378 13.9345 11.5786 12.9492L12.5579 6.09396C12.6153 5.69233 12.3037 5.33301 11.898 5.33301H4.10197C3.69627 5.33301 3.38462 5.69233 3.442 6.09395L4.42132 12.9492C4.56207 13.9345 5.40591 14.6663 6.40122 14.6663Z" stroke="#667085" stroke-width="1.33333" stroke-linecap="round" stroke-linejoin="round"/>
</svg>
