<svg width="20" height="20" viewBox="0 0 20 20" fill="none" xmlns="http://www.w3.org/2000/svg">
<g id="dots">
<g id="Icon">
<path d="M3.33317 11.6668C4.25365 11.6668 4.99984 10.9206 4.99984 10.0002C4.99984 9.07969 4.25365 8.3335 3.33317 8.3335C2.4127 8.3335 1.6665 9.07969 1.6665 10.0002C1.6665 10.9206 2.4127 11.6668 3.33317 11.6668Z" stroke="#667085" stroke-width="1.66667"/>
<path d="M9.99984 11.6668C10.9203 11.6668 11.6665 10.9206 11.6665 10.0002C11.6665 9.07969 10.9203 8.3335 9.99984 8.3335C9.07936 8.3335 8.33317 9.07969 8.33317 10.0002C8.33317 10.9206 9.07936 11.6668 9.99984 11.6668Z" stroke="#667085" stroke-width="1.66667"/>
<path d="M16.6665 11.6668C17.587 11.6668 18.3332 10.9206 18.3332 10.0002C18.3332 9.07969 17.587 8.3335 16.6665 8.3335C15.746 8.3335 14.9998 9.07969 14.9998 10.0002C14.9998 10.9206 15.746 11.6668 16.6665 11.6668Z" stroke="#667085" stroke-width="1.66667"/>
</g>
</g>
</svg>
