<svg width="20" height="20" viewBox="0 0 20 20" fill="none" xmlns="http://www.w3.org/2000/svg">
<path d="M3.33341 11.6668C4.25389 11.6668 5.00008 10.9206 5.00008 10.0002C5.00008 9.07969 4.25389 8.3335 3.33341 8.3335C2.41294 8.3335 1.66675 9.07969 1.66675 10.0002C1.66675 10.9206 2.41294 11.6668 3.33341 11.6668Z" stroke="#667085" stroke-width="1.66667"/>
<path d="M10.0001 11.6668C10.9206 11.6668 11.6667 10.9206 11.6667 10.0002C11.6667 9.07969 10.9206 8.3335 10.0001 8.3335C9.07961 8.3335 8.33342 9.07969 8.33342 10.0002C8.33342 10.9206 9.07961 11.6668 10.0001 11.6668Z" stroke="#667085" stroke-width="1.66667"/>
<path d="M16.6667 11.6668C17.5872 11.6668 18.3334 10.9206 18.3334 10.0002C18.3334 9.07969 17.5872 8.3335 16.6667 8.3335C15.7463 8.3335 15.0001 9.07969 15.0001 10.0002C15.0001 10.9206 15.7463 11.6668 16.6667 11.6668Z" stroke="#667085" stroke-width="1.66667"/>
</svg>
