<svg width="16" height="16" viewBox="0 0 16 16" fill="none" xmlns="http://www.w3.org/2000/svg">
<path fill-rule="evenodd" clip-rule="evenodd" d="M3.72069 7.48169C4.93876 5.53977 6.51632 4.66732 8 4.66732C9.48368 4.66732 11.0612 5.53977 12.2793 7.48169C12.4779 7.79836 12.4779 8.20294 12.2793 8.51961C11.0612 10.4615 9.48368 11.334 8 11.334C6.51632 11.334 4.93876 10.4615 3.72069 8.51961C3.52206 8.20294 3.52206 7.79836 3.72069 7.48169ZM13.4088 6.7732C12.0119 4.54606 10.0529 3.33398 8 3.33398C5.94713 3.33398 3.98815 4.54606 2.59117 6.7732C2.12079 7.52311 2.12079 8.4782 2.59117 9.2281C3.98815 11.4552 5.94713 12.6673 8 12.6673C10.0529 12.6673 12.0119 11.4552 13.4088 9.2281C13.8792 8.4782 13.8792 7.52311 13.4088 6.7732ZM7.94352 6.66849C7.96225 6.66771 7.98108 6.66732 8 6.66732C8.73638 6.66732 9.33334 7.26427 9.33334 8.00065C9.33334 8.73703 8.73638 9.33398 8 9.33398C7.26362 9.33398 6.66667 8.73703 6.66667 8.00065C6.66667 7.98173 6.66706 7.9629 6.66785 7.94416C6.77177 7.98075 6.88356 8.00065 7 8.00065C7.55229 8.00065 8 7.55294 8 7.00065C8 6.88421 7.9801 6.77242 7.94352 6.66849ZM8 5.33398C6.52724 5.33398 5.33334 6.52789 5.33334 8.00065C5.33334 9.47341 6.52724 10.6673 8 10.6673C9.47276 10.6673 10.6667 9.47341 10.6667 8.00065C10.6667 6.52789 9.47276 5.33398 8 5.33398Z" fill="#98A2B3"/>
</svg>
