<svg width="32" height="32" viewBox="0 0 32 32" fill="none" xmlns="http://www.w3.org/2000/svg">
<path d="M0 16C0 7.16344 7.16344 0 16 0C24.8366 0 32 7.16344 32 16C32 24.8366 24.8366 32 16 32C7.16344 32 0 24.8366 0 16Z" fill="#E0F1FE"/>
<g clip-path="url(#clip0_60039_39066)">
<path fill-rule="evenodd" clip-rule="evenodd" d="M21.6851 15.0814C21.438 14.6534 20.9851 14.5128 20.5528 14.4523C20.117 14.3914 19.5337 14.3914 18.8283 14.3914L18.7881 14.3914C18.368 14.3914 18.0934 14.3873 17.8933 14.3595C17.7124 14.3343 17.6548 14.2971 17.6303 14.2753C17.6123 14.2566 17.5803 14.2128 17.5585 14.0548C17.5327 13.8685 17.5316 13.6131 17.5316 13.2037V12.9541C17.5316 11.8957 17.5316 11.0479 17.4502 10.4434C17.3737 9.87605 17.192 9.23882 16.5625 9.04592C15.9441 8.85641 15.4255 9.26278 15.0223 9.68172C14.5928 10.128 14.0826 10.8183 13.4438 11.6826L11.3525 14.5122C10.9456 15.0626 10.6064 15.5215 10.4043 15.901C10.2017 16.2814 10.0543 16.733 10.279 17.1835L10.2798 17.1852L10.2822 17.19L10.2848 17.1954L10.2875 17.2005L10.2904 17.2059L10.2933 17.2113L10.2961 17.2164L10.2991 17.2215L10.3018 17.2262L10.3028 17.2278C10.5478 17.6521 10.9987 17.8006 11.4349 17.8672C11.8845 17.9359 12.4843 17.9403 13.2118 17.9403C13.6362 17.9403 13.9068 17.9412 14.1056 17.9666C14.2812 17.989 14.3337 18.0235 14.3562 18.0434C14.3761 18.0642 14.4111 18.1128 14.4357 18.2765C14.4639 18.4639 14.4684 18.7233 14.4684 19.128L14.4684 19.3776C14.4683 20.4359 14.4683 21.2838 14.5497 21.8882C14.6262 22.4556 14.8079 23.0928 15.4374 23.2857C16.0558 23.4753 16.5745 23.0689 16.9776 22.65C17.4071 22.2036 17.9173 21.5133 18.5561 20.649L20.6224 17.8535C21.0429 17.2845 21.3888 16.8092 21.5927 16.4136C21.7923 16.0264 21.9316 15.5721 21.7089 15.1257L21.7082 15.1241L21.7058 15.1193L21.7031 15.1139L21.7004 15.1088L21.6975 15.1033L21.6945 15.0979L21.6917 15.0928L21.6888 15.0876L21.6861 15.083L21.6851 15.0814ZM15.7428 10.3751C15.3642 10.7686 14.8924 11.4052 14.2232 12.3106L12.1818 15.0726C11.7433 15.6658 11.4499 16.065 11.2869 16.3711C11.2076 16.52 11.1778 16.614 11.1693 16.6709C11.1641 16.706 11.1673 16.7219 11.1715 16.7321C11.1876 16.7558 11.2576 16.8286 11.5859 16.8787C11.9445 16.9335 12.4601 16.9403 13.2118 16.9403L13.2425 16.9403C13.6272 16.9403 13.9625 16.9402 14.2321 16.9746C14.5208 17.0114 14.8077 17.0951 15.0452 17.3185L15.0491 17.3222L15.0529 17.3259C15.2863 17.555 15.3811 17.839 15.4246 18.1276C15.4661 18.4035 15.4684 18.7429 15.4684 19.128L15.4684 19.3344C15.4683 20.4457 15.4695 21.2253 15.5408 21.7547C15.5763 22.0183 15.6241 22.1729 15.6698 22.2593C15.7041 22.324 15.7239 22.3282 15.7294 22.3294L15.7304 22.3296L15.7314 22.33C15.7384 22.3324 15.7629 22.3409 15.8387 22.3027C15.9334 22.2551 16.0686 22.1524 16.2571 21.9565C16.6357 21.5631 17.1076 20.9265 17.7768 20.0211L19.8182 17.2591C20.2542 16.6692 20.5446 16.2642 20.7039 15.9553C20.8404 15.6906 20.8255 15.6009 20.8165 15.5771C20.8015 15.5552 20.7342 15.4874 20.4143 15.4427C20.0562 15.3926 19.5439 15.3914 18.7881 15.3914C18.3862 15.3914 18.0377 15.3891 17.7556 15.3499C17.4644 15.3094 17.1769 15.2218 16.9414 15.0003L16.9375 14.9967L16.9337 14.9929C16.6982 14.7618 16.6074 14.4782 16.5679 14.1916C16.5315 13.9287 16.5316 13.6032 16.5316 13.2359L16.5316 12.9972C16.5316 11.886 16.5305 11.1063 16.4591 10.577C16.4236 10.3134 16.3758 10.1588 16.3301 10.0724C16.2958 10.0077 16.2761 10.0035 16.2705 10.0023L16.2695 10.002L16.2685 10.0017C16.2615 9.99929 16.237 9.99081 16.1612 10.0289C16.0665 10.0766 15.9313 10.1793 15.7428 10.3751Z" fill="#007ECC"/>
</g>
<defs>
<clipPath id="clip0_60039_39066">
<rect width="16" height="16" fill="white" transform="translate(8 8.16602)"/>
</clipPath>
</defs>
</svg>
