<svg width="32" height="32" viewBox="0 0 32 32" fill="none" xmlns="http://www.w3.org/2000/svg">
<path d="M0 16C0 7.16344 7.16344 0 16 0C24.8366 0 32 7.16344 32 16C32 24.8366 24.8366 32 16 32C7.16344 32 0 24.8366 0 16Z" fill="#E0F1FE"/>
<path d="M10.002 16.0714C10.1971 16.2668 10.1969 16.5834 10.0015 16.7785L9.899 16.8809C9.81142 16.9684 9.81142 17.11 9.899 17.1974C9.98691 17.2852 10.1297 17.2852 10.2176 17.1974L11.3454 16.071C11.5408 15.8758 11.8574 15.876 12.0526 16.0714C12.2477 16.2668 12.2475 16.5834 12.0521 16.7785L10.9243 17.905C10.446 18.3827 9.67066 18.3827 9.19232 17.905C8.71364 17.4269 8.71364 16.6515 9.19232 16.1734L9.29485 16.071C9.49023 15.8758 9.80681 15.876 10.002 16.0714Z" fill="#007ECC"/>
<path d="M13.238 16.7356C13.4333 16.9308 13.4333 17.2474 13.238 17.4427L11.8267 18.854C11.6315 19.0492 11.3149 19.0492 11.1196 18.854C10.9244 18.6587 10.9244 18.3421 11.1196 18.1468L12.5309 16.7356C12.7262 16.5403 13.0427 16.5403 13.238 16.7356Z" fill="#007ECC"/>
<path d="M15.0885 18.5838C15.2837 18.7791 15.2837 19.0956 15.0885 19.2909L13.6869 20.6925C13.4916 20.8878 13.175 20.8878 12.9798 20.6925C12.7845 20.4973 12.7845 20.1807 12.9798 19.9854L14.3814 18.5838C14.5766 18.3885 14.8932 18.3885 15.0885 18.5838Z" fill="#007ECC"/>
<path d="M12.9815 18.8477C13.1745 19.0451 13.171 19.3617 12.9736 19.5548L11.8339 20.6694C11.6365 20.8625 11.3199 20.8589 11.1268 20.6615C10.9337 20.4641 10.9373 20.1475 11.1347 19.9545L12.2744 18.8398C12.4718 18.6468 12.7884 18.6503 12.9815 18.8477Z" fill="#007ECC"/>
<path d="M15.7375 19.7845C15.9327 19.9798 15.9325 20.2964 15.7371 20.4916L14.6093 21.618C14.5217 21.7055 14.5217 21.8471 14.6093 21.9345C14.6972 22.0224 14.84 22.0224 14.9279 21.9345L15.0304 21.8321C15.2258 21.637 15.5424 21.6372 15.7375 21.8326C15.9327 22.0279 15.9325 22.3445 15.7371 22.5397L15.6346 22.6421C15.1562 23.1198 14.3809 23.1198 13.9026 22.6421C13.4239 22.164 13.4239 21.3886 13.9026 20.9105L15.0304 19.784C15.2258 19.5889 15.5424 19.5891 15.7375 19.7845Z" fill="#007ECC"/>
<path fill-rule="evenodd" clip-rule="evenodd" d="M19.9946 8.66703L20.0838 8.66707L20.4473 8.66706C20.9496 8.66704 21.376 8.66702 21.7161 8.71256C22.0779 8.761 22.4161 8.86903 22.6895 9.14131C22.9632 9.41389 23.0721 9.75149 23.1209 10.1128C23.1667 10.4519 23.1667 10.8768 23.1666 11.3768L23.1666 11.7391L23.1667 11.8284C23.1671 12.429 23.1674 12.8688 22.9997 13.272C22.8321 13.6749 22.5199 13.9854 22.093 14.4098L22.0296 14.4729L20.519 15.9772L20.5452 16.0176C20.7724 16.3681 20.9586 16.6553 21.0933 16.9036C21.2336 17.162 21.3356 17.4086 21.3765 17.6836C21.4416 18.1209 21.3827 18.5701 21.2104 18.9822C21.1447 19.1395 21.0326 19.3011 20.9214 19.4443C20.8042 19.5953 20.6615 19.7591 20.509 19.925C20.2057 20.2551 19.8419 20.6173 19.5202 20.9377L19.5155 20.9424L19.4667 20.9909C19.0172 21.4386 18.2373 21.2945 17.9967 20.6918C17.8641 20.3596 17.8123 20.2321 17.7478 20.1146C17.6875 20.0049 17.6184 19.9001 17.541 19.8015C17.4594 19.6975 17.3639 19.601 17.1185 19.3565L16.8365 19.1096C16.7892 19.1146 16.7412 19.1172 16.6926 19.1172C16.3067 19.1172 15.9909 18.9557 15.7002 18.7349C15.4273 18.5275 15.1257 18.2272 14.7705 17.8735L13.9263 17.0328C13.5712 16.6792 13.2696 16.3789 13.0612 16.107C12.8395 15.8176 12.6765 15.5022 12.6765 15.1159C12.6765 15.0577 12.6803 15.0005 12.6875 14.9442L12.2292 14.4878C12.201 14.4598 12.1901 14.4489 12.1794 14.4386C11.9687 14.2343 11.7206 14.0718 11.4485 13.9598C11.4347 13.9541 11.4204 13.9485 11.3834 13.9338L11.1637 13.8469C10.5326 13.5971 10.3619 12.7826 10.8445 12.302L10.8492 12.2973C11.1709 11.9769 11.5347 11.6147 11.8662 11.3127C12.0328 11.1608 12.1973 11.0187 12.3489 10.902C12.4927 10.7913 12.6548 10.6798 12.8122 10.6146C13.2253 10.4434 13.6752 10.3849 14.1132 10.4496C14.3884 10.4902 14.6355 10.5915 14.8949 10.7311C15.1441 10.8652 15.4324 11.0505 15.7845 11.2769L15.8283 11.305L17.3413 9.79841L17.4043 9.73561C17.831 9.31023 18.1426 8.99956 18.5466 8.83292C18.9504 8.66637 19.3909 8.66665 19.9946 8.66703ZM19.7947 16.6984C19.9823 16.9885 20.1169 17.2009 20.2144 17.3806C20.325 17.5843 20.3702 17.7152 20.3874 17.8308C20.4249 18.0824 20.3919 18.3476 20.2878 18.5966C20.2751 18.6269 20.231 18.7029 20.1315 18.831C20.0382 18.9513 19.9159 19.0925 19.7726 19.2484C19.5026 19.5423 19.1775 19.8676 18.8676 20.1763C18.7756 19.9468 18.7084 19.7864 18.6244 19.6333C18.5379 19.4758 18.4387 19.3256 18.3277 19.1842C18.2026 19.0247 18.0594 18.8822 17.835 18.6588L17.8108 18.6347C17.8333 18.616 17.8557 18.597 17.878 18.5778C18.0978 18.3882 18.344 18.1431 18.627 17.8612L19.7947 16.6984ZM20.0838 9.66707C19.3524 9.66707 19.1255 9.67585 18.9279 9.75737C18.7305 9.83879 18.5641 9.99202 18.047 10.507L14.6558 13.8839C14.3661 14.1723 14.1488 14.3891 13.9855 14.5753C13.8212 14.7625 13.7423 14.8853 13.7053 14.9773C13.6842 15.0296 13.6765 15.0727 13.6765 15.1159C13.6765 15.1943 13.7013 15.2982 13.855 15.4988C14.0176 15.711 14.2703 15.9641 14.6558 16.348L14.7013 16.3933L15.5433 15.5548C15.7389 15.36 16.0555 15.3606 16.2504 15.5563C16.4452 15.752 16.4446 16.0686 16.2489 16.2634L15.4099 17.0989L15.4523 17.1412C15.8378 17.5251 16.0921 17.7768 16.3052 17.9387C16.5067 18.0917 16.6119 18.1172 16.6926 18.1172C16.7338 18.1172 16.7741 18.1104 16.8209 18.0932C16.9118 18.0598 17.0345 17.9848 17.2249 17.8206C17.4144 17.657 17.6357 17.4371 17.9329 17.1412L21.324 13.7643C21.8414 13.2491 21.9949 13.0837 22.0764 12.8879C22.1577 12.6923 22.1666 12.4678 22.1666 11.7391L22.1666 11.4105C22.1666 10.8675 22.1656 10.5108 22.1299 10.2466C22.0962 9.99695 22.0401 9.90589 21.9839 9.84991C21.9274 9.79365 21.8351 9.73741 21.5834 9.70371C21.3175 9.66812 20.9588 9.66707 20.4137 9.66707H20.0838ZM20.2316 11.5889C19.5966 10.9566 18.5679 10.9566 17.9329 11.5889C17.2967 12.2224 17.2967 13.2504 17.9329 13.8839C18.5679 14.5162 19.5966 14.5162 20.2316 13.8839C20.8677 13.2504 20.8677 12.2224 20.2316 11.5889ZM18.6385 12.2975C18.8833 12.0537 19.2811 12.0537 19.526 12.2975C19.7696 12.5401 19.7696 12.9326 19.526 13.1753C19.2811 13.4191 18.8833 13.4191 18.6385 13.1753C18.3948 12.9326 18.3948 12.5401 18.6385 12.2975ZM15.1028 12.0275C14.8132 11.8419 14.6008 11.7084 14.421 11.6116C14.2162 11.5015 14.0842 11.4561 13.9672 11.4389C13.7133 11.4014 13.4459 11.4345 13.195 11.5384C13.1641 11.5512 13.0875 11.5954 12.9589 11.6944C12.838 11.7874 12.6963 11.9092 12.5397 12.0519C12.2459 12.3196 11.9208 12.6416 11.6121 12.9489L11.7513 13.004L11.7547 13.0053C11.7874 13.0183 11.8083 13.0265 11.8291 13.0351C12.2183 13.1952 12.5734 13.4278 12.8754 13.7204C12.8916 13.7362 12.9075 13.752 12.9326 13.777L13.1592 14.0027C13.1836 13.9736 13.2085 13.9446 13.2338 13.9158C13.4219 13.7014 13.663 13.4613 13.9395 13.1859L15.1028 12.0275Z" fill="#007ECC"/>
</svg>
