<svg width="32" height="32" viewBox="0 0 32 32" fill="none" xmlns="http://www.w3.org/2000/svg">
<path d="M0 16C0 7.16344 7.16344 0 16 0C24.8366 0 32 7.16344 32 16C32 24.8366 24.8366 32 16 32C7.16344 32 0 24.8366 0 16Z" fill="#E0F1FE"/>
<path d="M16.4714 16.3048C16.211 16.5651 15.7889 16.5651 15.5286 16.3048C15.2682 16.0444 15.2682 15.6223 15.5286 15.362C15.7889 15.1016 16.211 15.1016 16.4714 15.362C16.7317 15.6223 16.7317 16.0444 16.4714 16.3048Z" fill="#007ECC"/>
<path d="M14.5858 13.4763C14.3254 13.7367 13.9033 13.7367 13.643 13.4763C13.3826 13.216 13.3826 12.7939 13.643 12.5335C13.9033 12.2732 14.3254 12.2732 14.5858 12.5335C14.8461 12.7939 14.8461 13.216 14.5858 13.4763Z" fill="#007ECC"/>
<path d="M19.2998 18.1904C19.0395 18.4507 18.6174 18.4507 18.357 18.1904C18.0967 17.93 18.0967 17.5079 18.357 17.2476C18.6174 16.9872 19.0395 16.9872 19.2998 17.2476C19.5602 17.5079 19.5602 17.93 19.2998 18.1904Z" fill="#007ECC"/>
<path fill-rule="evenodd" clip-rule="evenodd" d="M13.4028 10.7113C12.7691 10.603 12.3911 10.7213 12.1928 10.9195C12.0441 11.0682 11.9413 11.3125 11.9439 11.6989C11.9465 12.0879 12.0576 12.5795 12.2912 13.1478C12.7575 14.2822 13.6727 15.6273 14.9394 16.894C16.2061 18.1606 17.5512 19.0758 18.6855 19.5421C19.2538 19.7757 19.7454 19.8869 20.1344 19.8895C20.5209 19.892 20.7651 19.7892 20.9138 19.6405C21.112 19.4423 21.2304 19.0643 21.122 18.4305C21.0377 17.9374 20.8236 17.3499 20.4824 16.7084C20.3449 16.7795 20.1731 16.8233 19.9751 16.7878C19.4946 16.7015 18.5906 16.3027 17.0607 14.7727C15.5307 13.2427 15.1319 12.3388 15.0456 11.8583C15.01 11.6602 15.0538 11.4884 15.125 11.351C14.4834 11.0098 13.896 10.7956 13.4028 10.7113ZM15.8905 10.6317C15.0769 10.1649 14.2815 9.847 13.5713 9.72561C12.7938 9.5927 12.0157 9.68243 11.4857 10.2124C11.0911 10.607 10.9402 11.1442 10.9439 11.7056C10.9476 12.2645 11.1029 12.8872 11.3663 13.528C11.8941 14.8119 12.8955 16.2642 14.2323 17.6011C15.5691 18.9379 17.0215 19.9393 18.3053 20.467C18.9462 20.7305 19.5689 20.8857 20.1277 20.8894C20.6891 20.8932 21.2263 20.7422 21.6209 20.3476C22.1509 19.8176 22.2406 19.0396 22.1077 18.2621C21.9863 17.5518 21.6684 16.7565 21.2017 15.9429C22.1271 14.5265 21.9679 12.6088 20.7241 11.365L20.4683 11.1093C19.2245 9.86548 17.3068 9.70628 15.8905 10.6317ZM16.0529 11.7744C16.1381 12.0542 16.4734 12.7712 17.7678 14.0656C19.0621 15.36 19.7791 15.6953 20.0589 15.7804C21.0526 14.7416 21.0386 13.0938 20.0169 12.0721L19.7612 11.8164C18.7395 10.7947 17.0918 10.7807 16.0529 11.7744ZM11.1681 15.0084C11.3634 15.2037 11.3634 15.5202 11.1681 15.7155L9.75388 17.1297C9.55862 17.325 9.24204 17.325 9.04678 17.1297C8.85151 16.9345 8.85151 16.6179 9.04678 16.4226L10.461 15.0084C10.6563 14.8131 10.9728 14.8131 11.1681 15.0084ZM13.5251 18.3082C13.7204 18.5035 13.7204 18.8201 13.5251 19.0153L10.7776 21.7629C10.5823 21.9581 10.2657 21.9581 10.0705 21.7629C9.8752 21.5676 9.8752 21.251 10.0705 21.0558L12.818 18.3082C13.0133 18.113 13.3299 18.113 13.5251 18.3082ZM16.825 20.6653C17.0202 20.8605 17.0202 21.1771 16.825 21.3724L15.4107 22.7866C15.2155 22.9818 14.8989 22.9818 14.7036 22.7866C14.5084 22.5913 14.5084 22.2747 14.7036 22.0795L16.1178 20.6653C16.3131 20.47 16.6297 20.47 16.825 20.6653Z" fill="#007ECC"/>
</svg>
