<?xml version="1.0" encoding="UTF-8"?>
<svg version="1.1" xmlns="http://www.w3.org/2000/svg" width="50" height="50">
<path d="M0 0 C5.47528237 0.89286642 8.53274648 4.98020193 12.3125 8.75 C13.06595703 9.46671875 13.81941406 10.1834375 14.59570312 10.921875 C15.30275391 11.623125 16.00980469 12.324375 16.73828125 13.046875 C17.38837158 13.68463867 18.03846191 14.32240234 18.70825195 14.97949219 C20 17 20 17 19.92211914 19.49780273 C18.86525602 22.36563172 17.66629124 23.83599421 15.5078125 25.98828125 C14.45013672 27.04692383 14.45013672 27.04692383 13.37109375 28.12695312 C12.62988281 28.84818359 11.88867188 29.56941406 11.125 30.3125 C10.39152344 31.05306641 9.65804688 31.79363281 8.90234375 32.55664062 C3.3937644 38 3.3937644 38 0 38 C0.24101397 32.43572085 3.76018887 29.78146531 7.5625 26.1875 C8.17802734 25.59001953 8.79355469 24.99253906 9.42773438 24.37695312 C10.94293249 22.9087379 12.47030438 21.45310447 14 20 C12.12593705 15.0657583 7.94946045 11.91780783 4.16796875 8.421875 C2.70592853 7.02001561 1.34543341 5.5141269 0 4 C0 2.68 0 1.36 0 0 Z " fill="#000000" transform="translate(15,6)"/>
</svg>
