<svg width="16" height="16" viewBox="0 0 16 16" fill="none" xmlns="http://www.w3.org/2000/svg">
<path d="M3.33333 2H5.33333C6.06971 2 6.66667 2.59695 6.66667 3.33333V5.33333C6.66667 6.06971 6.06971 6.66667 5.33333 6.66667H3.33333C2.59695 6.66667 2 6.06971 2 5.33333V3.33333C2 2.59695 2.59695 2 3.33333 2Z" stroke="#667085" stroke-width="1.33333"/>
<path d="M3.33333 9.33333H5.33333C6.06971 9.33333 6.66667 9.93029 6.66667 10.6667V12.6667C6.66667 13.403 6.06971 14 5.33333 14H3.33333C2.59695 14 2 13.403 2 12.6667V10.6667C2 9.93029 2.59695 9.33333 3.33333 9.33333Z" stroke="#667085" stroke-width="1.33333"/>
<path d="M11.9999 2V14M11.9999 14L9.33325 11.3333M11.9999 14L14.6666 11.3333" stroke="#667085" stroke-width="1.33333" stroke-linecap="round" stroke-linejoin="round"/>
</svg>
