<svg width="16" height="16" viewBox="0 0 16 16" fill="none" xmlns="http://www.w3.org/2000/svg">
<path d="M13.3333 9.33341H10.4667L10.9333 6.66675H13.3333C13.7333 6.66675 14 6.40008 14 6.00008C14 5.60008 13.7333 5.33341 13.3333 5.33341H11.2L11.6667 2.80008C11.7333 2.46674 11.5333 2.06674 11.1333 2.00008C11.1333 2.00008 11.1333 2.00008 11.0667 2.00008C10.7333 1.93341 10.3333 2.13341 10.2667 2.46674V2.53341L9.8 5.33341H7.2L7.66667 2.80008C7.73333 2.46674 7.53333 2.06674 7.13333 2.00008C7.13333 2.00008 7.13333 2.00008 7.06667 2.00008C6.73333 1.93341 6.33333 2.13341 6.26667 2.46674V2.53341L5.8 5.33341H2.66667C2.26667 5.33341 2 5.60008 2 6.00008C2 6.40008 2.26667 6.66675 2.66667 6.66675H5.53333L5.06667 9.33341H2.66667C2.26667 9.33341 2 9.60008 2 10.0001C2 10.4001 2.26667 10.6667 2.66667 10.6667H4.8L4.33333 13.2001C4.26667 13.5334 4.46667 13.9334 4.86667 14.0001H4.93333C5.26667 14.0667 5.66667 13.8667 5.73333 13.5334V13.4667L6.2 10.6667H8.8L8.33333 13.2001C8.26667 13.5334 8.46667 13.9334 8.86667 14.0001H8.93333C9.26667 14.0667 9.66667 13.8667 9.73333 13.5334V13.4667L10.2667 10.6667H13.3333C13.7333 10.6667 14 10.4001 14 10.0001C14 9.60008 13.7333 9.33341 13.3333 9.33341ZM6.46667 9.33341L6.93333 6.66675H9.53333L9.06667 9.33341H6.46667Z" fill="#667085"/>
</svg>
