<svg width="16" height="19" viewBox="0 0 16 19" fill="none" xmlns="http://www.w3.org/2000/svg">
<path id="Icon" d="M14.6668 3.66675H10.0835M1.3335 3.66675H5.91683M5.91683 3.66675V3.25008C5.91683 2.09949 6.84957 1.16675 8.00016 1.16675V1.16675C9.15076 1.16675 10.0835 2.09949 10.0835 3.25008V3.66675M5.91683 3.66675H10.0835M6.3335 9.50008V14.5001M9.66683 9.50008V14.5001M6.00174 17.8334H9.99859C11.2427 17.8334 12.2975 16.9186 12.4735 15.687L13.6976 7.11793C13.7693 6.6159 13.3798 6.16675 12.8727 6.16675H3.12767C2.62055 6.16675 2.23099 6.6159 2.30271 7.11793L3.52686 15.687C3.70281 16.9186 4.75761 17.8334 6.00174 17.8334Z" stroke="#98A2B3" stroke-width="1.66667" stroke-linecap="round" stroke-linejoin="round"/>
</svg>
