<svg width="20" height="21" viewBox="0 0 20 21" fill="none" xmlns="http://www.w3.org/2000/svg">
<g id="safe-01">
<path id="Icon" fill-rule="evenodd" clip-rule="evenodd" d="M4.16667 3C2.32572 3 0.833333 4.49238 0.833333 6.33333V12.5835C0.833333 14.1367 1.89564 15.4418 3.33333 15.8118V16.3335C3.33333 17.254 4.07952 18.0002 5 18.0002H5.83333C6.75381 18.0002 7.5 17.254 7.5 16.3335V15.9169H12.5V16.3335C12.5 17.254 13.2462 18.0002 14.1667 18.0002H15C15.9205 18.0002 16.6667 17.254 16.6667 16.3335V15.8118C18.1044 15.4418 19.1667 14.1367 19.1667 12.5835V6.33333C19.1667 4.49238 17.6743 3 15.8333 3H4.16667ZM5 16.3335V15.9169H5.83333V16.3335H5ZM14.1667 16.3335V15.9169H15V16.3335H14.1667ZM2.5 6.33333C2.5 5.41286 3.24619 4.66667 4.16667 4.66667H15.8333C16.7538 4.66667 17.5 5.41286 17.5 6.33333V12.5835C17.5 13.504 16.7538 14.2502 15.8333 14.2502H13.3333H6.66667H4.16667C3.24619 14.2502 2.5 13.504 2.5 12.5835V6.33333ZM10.8333 6.75C10.8333 6.28976 10.4602 5.91667 10 5.91667C9.53976 5.91667 9.16667 6.28976 9.16667 6.75V8.01464C8.91364 8.161 8.70267 8.37198 8.5563 8.625H7.29167C6.83143 8.625 6.45833 8.9981 6.45833 9.45833C6.45833 9.91857 6.83143 10.2917 7.29167 10.2917H8.5563C8.70267 10.5447 8.91364 10.7557 9.16667 10.902V12.1667C9.16667 12.6269 9.53976 13 10 13C10.4602 13 10.8333 12.6269 10.8333 12.1667V10.902C11.0864 10.7557 11.2973 10.5447 11.4437 10.2917H12.7083C13.1686 10.2917 13.5417 9.91857 13.5417 9.45833C13.5417 8.9981 13.1686 8.625 12.7083 8.625H11.4437C11.2973 8.37198 11.0864 8.161 10.8333 8.01464V6.75Z" fill="#667085"/>
</g>
</svg>
