<svg width="16" height="19" viewBox="0 0 16 19" fill="none" xmlns="http://www.w3.org/2000/svg">
<path id="Icon" fill-rule="evenodd" clip-rule="evenodd" d="M3.83333 0.333252C1.99238 0.333252 0.5 1.82564 0.5 3.66658V15.3333C0.5 17.1742 1.99238 18.6666 3.83333 18.6666H12.1667C14.0076 18.6666 15.5 17.1742 15.5 15.3333V7.20212C15.5 6.72115 15.396 6.25086 15.2006 5.82142C15.0368 5.46148 14.8087 5.13011 14.5237 4.8451L10.9882 1.30956C10.7031 1.02455 10.3718 0.796446 10.0118 0.632648C9.58239 0.437218 9.1121 0.333252 8.63113 0.333252H3.83333ZM2.16667 3.66658C2.16667 2.74611 2.91286 1.99992 3.83333 1.99992H8.63113C8.87161 1.99992 9.1067 2.05187 9.3215 2.14962C9.44415 2.20544 9.56012 2.27616 9.66667 2.36065V5.33331C9.66667 5.79355 10.0398 6.16664 10.5 6.16664H13.4727C13.5571 6.27317 13.6278 6.38913 13.6836 6.51175C13.7814 6.72655 13.8333 6.96164 13.8333 7.20212V15.3333C13.8333 16.2537 13.0871 16.9999 12.1667 16.9999H3.83333C2.91286 16.9999 2.16667 16.2537 2.16667 15.3333V3.66658ZM8.58926 8.494C8.26382 8.16856 7.73618 8.16856 7.41074 8.494L5.74408 10.1607C5.41864 10.4861 5.41864 11.0137 5.74408 11.3392C6.06951 11.6646 6.59715 11.6646 6.92259 11.3392L7.16667 11.0951V13.6666C7.16667 14.1268 7.53976 14.4999 8 14.4999C8.46024 14.4999 8.83333 14.1268 8.83333 13.6666V11.0951L9.07741 11.3392C9.40285 11.6646 9.93048 11.6646 10.2559 11.3392C10.5814 11.0137 10.5814 10.4861 10.2559 10.1607L8.58926 8.494Z" fill="#98A2B3"/>
</svg>
