<svg width="16" height="16" viewBox="0 0 16 16" fill="none" xmlns="http://www.w3.org/2000/svg">
<g clip-path="url(#clip0_60007_33437)">
<path fill-rule="evenodd" clip-rule="evenodd" d="M7.99998 0.592285C3.90898 0.592285 0.592571 3.90869 0.592571 7.99969C0.592571 12.0907 3.90898 15.4071 7.99998 15.4071C12.091 15.4071 15.4074 12.0907 15.4074 7.99969C15.4074 3.90869 12.091 0.592285 7.99998 0.592285ZM2.07405 7.99969C2.07405 4.72689 4.72718 2.07377 7.99998 2.07377C11.2728 2.07377 13.9259 4.72689 13.9259 7.99969C13.9259 11.2725 11.2728 13.9256 7.99998 13.9256C4.72718 13.9256 2.07405 11.2725 2.07405 7.99969ZM7.66665 6.25895C7.25755 6.25895 6.9259 6.59059 6.9259 6.99969C6.9259 7.25829 7.05841 7.48593 7.25924 7.61843V10.2626C6.88492 10.2998 6.59257 10.6156 6.59257 10.9997C6.59257 11.4088 6.92421 11.7404 7.33331 11.7404H7.99998H8.66665C9.07575 11.7404 9.40739 11.4088 9.40739 10.9997C9.40739 10.6156 9.11504 10.2998 8.74072 10.2626V6.99969C8.74072 6.59059 8.40908 6.25895 7.99998 6.25895H7.66665ZM7.99998 5.66658C8.36817 5.66658 8.66665 5.3681 8.66665 4.99991C8.66665 4.63172 8.36817 4.33324 7.99998 4.33324C7.63179 4.33324 7.33332 4.63172 7.33332 4.99991C7.33332 5.3681 7.63179 5.66658 7.99998 5.66658Z" fill="#667085"/>
</g>
<defs>
<clipPath id="clip0_60007_33437">
<rect width="16" height="16" fill="white"/>
</clipPath>
</defs>
</svg>
