<svg width="16" height="16" viewBox="0 0 16 16" fill="none" xmlns="http://www.w3.org/2000/svg">
<path d="M2.90961 9.41377C2.69287 9.63051 2.54927 9.90955 2.49888 10.2119L2.01028 13.1435C1.92733 13.6412 2.3588 14.0727 2.85648 13.9897L5.7881 13.5011C6.09045 13.4507 6.36949 13.3071 6.58623 13.0904M2.90961 9.41377L9 3.32338M2.90961 9.41377L6.58623 13.0904M6.58623 13.0904L12.6766 7M9 3.32338L9.56193 2.76145C10.5772 1.74618 12.2233 1.74618 13.2385 2.76145C14.2538 3.77672 14.2538 5.4228 13.2385 6.43807L12.6766 7M9 3.32338L12.6766 7M9.33333 13.9897H14" stroke="#667085" stroke-width="1.33333" stroke-linecap="round" stroke-linejoin="round"/>
</svg>
