<svg width="16" height="16" viewBox="0 0 16 16" fill="none" xmlns="http://www.w3.org/2000/svg">
<path d="M11 7.33333L12 8.33333L14 6.33333M5.33333 9.33333H8C9.84095 9.33333 11.3333 10.8257 11.3333 12.6667V13.3333C11.3333 13.7015 11.0349 14 10.6667 14H2.66667C2.29848 14 2 13.7015 2 13.3333V12.6667C2 10.8257 3.49238 9.33333 5.33333 9.33333ZM9.33333 4.66667C9.33333 6.13943 8.13943 7.33333 6.66667 7.33333C5.19391 7.33333 4 6.13943 4 4.66667C4 3.19391 5.19391 2 6.66667 2C8.13943 2 9.33333 3.19391 9.33333 4.66667Z" stroke="#667085" stroke-width="1.33333" stroke-linecap="round" stroke-linejoin="round"/>
</svg>
