<svg width="16" height="16" viewBox="0 0 16 16" fill="none" xmlns="http://www.w3.org/2000/svg">
  <path d="M8 3C4.69 3 2 5.69 2 9C2 12.31 4.69 15 8 15C11.31 15 14 12.31 14 9C14 5.69 11.31 3 8 3ZM8 13C5.79 13 4 11.21 4 9C4 6.79 5.79 5 8 5C10.21 5 12 6.79 12 9C12 11.21 10.21 13 8 13Z" fill="currentColor"/>
  <path d="M8 6C6.34 6 5 7.34 5 9C5 10.66 6.34 12 8 12C9.66 12 11 10.66 11 9C11 7.34 9.66 6 8 6ZM8 10C7.45 10 7 9.55 7 9C7 8.45 7.45 8 8 8C8.55 8 9 8.45 9 9C9 9.55 8.55 10 8 10Z" fill="currentColor"/>
  <path d="M8 1C8 0.45 7.55 0 7 0C6.45 0 6 0.45 6 1V3C6 3.55 6.45 4 7 4C7.55 4 8 3.55 8 3V1Z" fill="currentColor"/>
  <path d="M10 1C10 0.45 9.55 0 9 0C8.45 0 8 0.45 8 1V3C8 3.55 8.45 4 9 4C9.55 4 10 3.55 10 3V1Z" fill="currentColor"/>
</svg> 