<svg width="20" height="20" viewBox="0 0 20 20" fill="none" xmlns="http://www.w3.org/2000/svg">
<g id="users-03">
<path id="Icon" fill-rule="evenodd" clip-rule="evenodd" d="M5.08932 7.3875C5.40239 5.75235 6.5119 4.40009 7.9986 3.74998C7.56634 3.00274 6.75842 2.5 5.83307 2.5C4.45236 2.5 3.33307 3.61929 3.33307 5C3.33307 6.12171 4.07182 7.07087 5.08932 7.3875ZM5.07045 9.17456C3.16968 9.29906 1.6665 10.8802 1.6665 12.8125C1.6665 13.1001 1.89969 13.3333 2.18734 13.3333H4.18488C4.67139 12.5734 5.34244 11.943 6.1348 11.5054C5.5945 10.8478 5.21874 10.0499 5.07045 9.17456ZM15.8152 13.3333H17.8123C18.1 13.3333 18.3332 13.1001 18.3332 12.8125C18.3332 10.8803 16.8301 9.29923 14.9295 9.17458C14.7812 10.0498 14.4055 10.8477 13.8652 11.5053C14.6576 11.943 15.3287 12.5734 15.8152 13.3333ZM14.9106 7.38736C15.9279 7.07058 16.6664 6.12154 16.6664 5C16.6664 3.61929 15.5471 2.5 14.1664 2.5C13.2411 2.5 12.4333 3.00266 12.001 3.74981C13.4878 4.39983 14.5975 5.75212 14.9106 7.38736Z" fill="#667085"/>
<g id="Icon_2">
<path d="M10.0001 10.8335C11.3809 10.8335 12.5001 9.71421 12.5001 8.3335C12.5001 6.95278 11.3809 5.8335 10.0001 5.8335C8.61944 5.8335 7.50015 6.95278 7.50015 8.3335C7.50015 9.71421 8.61944 10.8335 10.0001 10.8335Z" stroke="#667085" stroke-width="1.66667"/>
<path d="M13.7502 16.6668H6.25017C6.02004 16.6668 5.83349 16.4803 5.8335 16.2501C5.83354 14.6393 7.1394 13.3335 8.75023 13.3335H11.2502C12.8611 13.3335 14.1669 14.6394 14.1668 16.2502C14.1668 16.4803 13.9803 16.6668 13.7502 16.6668Z" stroke="#667085" stroke-width="1.66667"/>
</g>
</g>
</svg>
