<svg width="24" height="24" viewBox="0 0 24 24" fill="none" xmlns="http://www.w3.org/2000/svg">
<g id="Icon">
<path id="Icon_2" d="M3 7L12 3L16.5 5M3 7V17L12 21M3 7L7.5 9M21 7L12 11M21 7L16.5 5M21 7V12.5M12 11V21M12 11L7.5 9M12 21L14.1094 20.0625M7.5 9L16.5 5M19.7008 18.7008L21 20M19.7008 18.7008C19.3615 19.0401 18.8928 19.25 18.375 19.25C17.3395 19.25 16.5 18.4105 16.5 17.375C16.5 16.3395 17.3395 15.5 18.375 15.5C19.4105 15.5 20.25 16.3395 20.25 17.375C20.25 17.8928 20.0401 18.3615 19.7008 18.7008Z" stroke="#98A2B3" stroke-width="2" stroke-linecap="round" stroke-linejoin="round"/>
</g>
</svg>
